<svg id="Capa_1" data-name="Capa 1" xmlns="http://www.w3.org/2000/svg" viewBox="0 0 54.06 58.76"><defs><style>.cls-1{fill:#fff;}</style></defs><title>LOGO_NG_FOOTER</title><polygon class="cls-1" points="27.03 2.96 50.69 12.26 53.65 10.46 27.03 0 0.41 10.46 3.36 12.26 27.03 2.96"/><polygon class="cls-1" points="5.31 35.32 2.95 12.93 0 11.13 3.52 44.63 26.64 58.76 26.64 55.54 6.12 42.99 5.31 35.32"/><polygon class="cls-1" points="51.1 12.93 48.52 37.43 47.94 42.99 27.42 55.54 27.42 58.76 50.53 44.63 54.06 11.13 51.1 12.93"/><path class="cls-1" d="M22.37,19.21h3.07V31.88H22.37l-5.15-8v8H14.14V19.21h3.08l5.15,8Z"/><path class="cls-1" d="M29.29,30.16a6.16,6.16,0,0,1-1.88-4.64,6.16,6.16,0,0,1,1.88-4.63,6.33,6.33,0,0,1,4.6-1.83,6.44,6.44,0,0,1,3.74,1.12,5.79,5.79,0,0,1,2.29,3.09H36.25a2.42,2.42,0,0,0-2.31-1.38,3.2,3.2,0,0,0-2.49,1,3.73,3.73,0,0,0-.91,2.64,3.74,3.74,0,0,0,.91,2.65,3.14,3.14,0,0,0,2.44,1,2.77,2.77,0,0,0,1.79-.55,2.65,2.65,0,0,0,.93-1.46H33V24.8h6.88v2.35A6.19,6.19,0,0,1,38,30.37a5.64,5.64,0,0,1-1.83,1.17,6,6,0,0,1-2.31.45A6.33,6.33,0,0,1,29.29,30.16Z"/><path class="cls-1" d="M14.56,35.87a1.51,1.51,0,0,1,0-2.09,1.43,1.43,0,0,1,1-.42,1.47,1.47,0,0,1,.85.26,1.28,1.28,0,0,1,.52.7h-.83a.56.56,0,0,0-.52-.32.75.75,0,0,0-.57.23.81.81,0,0,0-.2.59.84.84,0,0,0,.2.6.75.75,0,0,0,.57.23.56.56,0,0,0,.52-.32H17a1.28,1.28,0,0,1-.52.7,1.47,1.47,0,0,1-.85.26A1.43,1.43,0,0,1,14.56,35.87Z"/><path class="cls-1" d="M18.2,35.88a1.44,1.44,0,0,1-.43-1.06,1.39,1.39,0,0,1,.43-1,1.5,1.5,0,0,1,2.08,0,1.39,1.39,0,0,1,.42,1,1.43,1.43,0,0,1-.42,1.06,1.52,1.52,0,0,1-2.08,0Zm1.59-.46a.89.89,0,0,0,.2-.6.86.86,0,0,0-.2-.59.72.72,0,0,0-.55-.23.7.7,0,0,0-.55.23.82.82,0,0,0-.21.59.84.84,0,0,0,.21.6.7.7,0,0,0,.55.23A.72.72,0,0,0,19.79,35.42Z"/><path class="cls-1" d="M21.67,33.4h.7v2.33h.87v.53H21.67Z"/><path class="cls-1" d="M24.41,35.88A1.4,1.4,0,0,1,24,34.82a1.36,1.36,0,0,1,.43-1,1.5,1.5,0,0,1,2.08,0,1.39,1.39,0,0,1,.42,1,1.43,1.43,0,0,1-.42,1.06,1.47,1.47,0,0,1-1,.41A1.45,1.45,0,0,1,24.41,35.88ZM26,35.42a.89.89,0,0,0,.2-.6.86.86,0,0,0-.2-.59.72.72,0,0,0-.55-.23.7.7,0,0,0-.55.23.82.82,0,0,0-.21.59.84.84,0,0,0,.21.6.7.7,0,0,0,.55.23A.72.72,0,0,0,26,35.42Z"/><path class="cls-1" d="M31.12,33.4v2.86h-.7V34.65l-.66,1.61h-.52l-.66-1.61v1.61h-.7V33.4h.8l.82,2,.82-2Z"/><path class="cls-1" d="M32.26,33.4H33.5a1,1,0,0,1,.69.22.67.67,0,0,1,.26.53c0,.33-.19.54-.57.66a.71.71,0,0,1,.46.24.67.67,0,0,1,.18.47.67.67,0,0,1-.25.54,1.12,1.12,0,0,1-.7.2H32.26Zm.69.53v.62h.46a.32.32,0,0,0,.24-.08.27.27,0,0,0,.09-.23.3.3,0,0,0-.09-.23.36.36,0,0,0-.24-.08Zm0,1.8h.53a.36.36,0,0,0,.23-.08.3.3,0,0,0,.1-.24.32.32,0,0,0-.09-.24.32.32,0,0,0-.23-.09H33Z"/><path class="cls-1" d="M35.53,36.26V33.4h.69v2.86Z"/><path class="cls-1" d="M39.17,36.26,39,35.78H38l-.16.48h-.74l1-2.86h.85l1,2.86Zm-1-1h.68l-.34-1Z"/><polygon class="cls-1" points="9.4 40.45 6.7 14.74 26.64 6.91 26.64 3.95 3.75 12.95 6.81 42.09 9.4 40.45"/><polygon class="cls-1" points="27.42 3.95 27.42 6.91 47.36 14.74 44.65 40.45 47.25 42.09 50.31 12.95 27.42 3.95"/><polygon class="cls-1" points="46.83 42.75 44.23 41.12 27.03 51.64 9.82 41.12 7.23 42.75 27.03 54.86 46.83 42.75"/></svg>