<svg id="Ebene_1" data-name="Ebene 1" xmlns="http://www.w3.org/2000/svg" viewBox="0 0 482.81 173.51"><defs><style>.cls-1{fill:#d20002;}.cls-2{fill:#fff;}.cls-3{fill:#ca1029;}.cls-4{fill:#e5052a;}</style></defs><title>nggirls</title><path class="cls-1" d="M433.61,319.86c-3.34,0-6.39-.13-9.42,0-5.72.3-10.77,2.57-15.47,5.67-9,5.91-15.47,14-20.63,23.28a75,75,0,0,0-9.83,37,30.1,30.1,0,0,0,.42,4.82c0.84,5.15,4.8,7.74,10.11,6.77a34.16,34.16,0,0,0,12-5,65,65,0,0,0,20.91-20.6c0.66-1.05,1.18-2.2,2-3.69-1.66-.16-3-0.36-4.42-0.41-4.19-.16-8.38-0.41-12.56-0.33-1.89,0-2.51-.88-3-2.31a2.69,2.69,0,0,1,1.11-3.6,16.32,16.32,0,0,1,5.83-2c5-.38,10-0.3,15-0.52a19.91,19.91,0,0,0,4.52-.84c2.69-.77,5.32-1.74,8-2.52A3.13,3.13,0,0,1,442,357c0.83,1.34.33,2.65-.54,3.83a3.93,3.93,0,0,1-1,1.06c-4.64,2.83-5.77,7.54-6.59,12.38-1.91,11.23-1.75,22.52-.85,33.82,0.26,3.27.73,6.54,1.19,9.79,0.21,1.47-.09,2.4-1.7,2.72a18.66,18.66,0,0,0-2.36.83c-2.37.81-3.08,0.67-3.61-1.81a133.23,133.23,0,0,1-2.25-13.93c-0.59-5.75-.79-11.55-1.18-17.8-1.2,1-2.21,1.67-3.07,2.51a77.92,77.92,0,0,1-17.91,13.08,37,37,0,0,1-12.33,4.16c-11.06,1.58-18.07-4.66-20.8-14.36-1.66-5.87-1.21-11.9-.26-17.82a98.35,98.35,0,0,1,20.22-46c5.81-7.37,12.63-13.56,21.49-17.12a32.92,32.92,0,0,1,21.44-.92c1.39,0.38,2.18,1.11,2.06,2.66C433.81,315.94,433.73,317.85,433.61,319.86Z" transform="translate(-80.95 -286.87)"/><path class="cls-1" d="M354.87,366c-0.59,1.2-1.2,2.39-1.77,3.59-2.82,6-5.34,12.16-8.54,18a79.33,79.33,0,0,1-8.32,11.63,10.43,10.43,0,0,1-9,4,7.55,7.55,0,0,1-6.56-3.78A31.82,31.82,0,0,1,317,390.7c-0.49-2.46.15-5.23,0.68-7.78a78.2,78.2,0,0,1,17.08-35.6c3.81-4.44,8.4-7.81,14.24-9.12a15,15,0,0,1,12.76,2.56,4.58,4.58,0,0,1,1.71,2.9c0.58,6.73,1.06,13.48,1.38,20.23,0.51,10.76,1,21.52,1.24,32.28,0.1,5.12.17,10.4-.92,15.35-2.24,10.25-7,19.29-15.31,26.12a29.08,29.08,0,0,1-23.11,6.55c-2.6-.34-4.16-2-4.19-4.32a4.45,4.45,0,0,1,4.18-4.55c4.58-.6,9.07-1.43,13.16-3.77,7.46-4.27,11.7-10.87,14-19,2.61-9.32,2.82-18.87,2.54-28.44-0.18-6-.67-12-1-18Zm-29.1,23.65a8.81,8.81,0,0,0,1.75,2.6c0.3,0.25,1.72-.85,2.61-1.35a1.62,1.62,0,0,0,.51-0.5c2.1-3.11,4.56-6,6.22-9.38,5.09-10.25,9.89-20.64,14.74-31a1.52,1.52,0,0,0-2.13-2.16,27.55,27.55,0,0,0-5,3.1c-5.58,4.65-9.3,10.69-12.41,17.14A65,65,0,0,0,325.77,389.69Z" transform="translate(-80.95 -286.87)"/><path class="cls-1" d="M271.42,371.14c0.46-1.69.88-3.39,1.38-5.07,1.78-6.08,3.77-12.08,7.47-17.34a18.15,18.15,0,0,1,12.39-8,10.18,10.18,0,0,1,10.13,4c3.15,3.84,4.62,8.47,5.83,13.18,2.1,8.2,2.92,16.59,3.6,25,0.29,3.56.75,7.12,0.79,10.69,0,4.36-.27,8.72-0.44,13.08a32.83,32.83,0,0,1-.26,3.39,4.84,4.84,0,0,1-4.91,4c-2.41-.12-4-1.86-4.08-4.56-0.15-6.82-.18-13.64-0.4-20.46-0.31-9.67-.68-19.36-3.26-28.76a30.49,30.49,0,0,0-3.09-7.37c-1.92-3.25-4.3-3.31-6.7-.45-3.13,3.72-5,8.13-6.66,12.63-5,14-8.24,28.45-10.77,43.07-0.71,4.13-4.91,6.42-8.56,4.29a5.52,5.52,0,0,1-2.23-5.22q0-30.35.06-60.69,0-1.08.06-2.15c0.14-2.53.83-3.46,3-4.05s4.9,0.29,5.84,1.79a2.64,2.64,0,0,1,.29,1.34c0,8.91-.06,17.82-0.07,26.73a3.67,3.67,0,0,0,.28,1h0.31Z" transform="translate(-80.95 -286.87)"/><path class="cls-1" d="M549.49,347.86c-6.93-.65-12.49,2-17.15,7-3.17,3.36-4.33,7.48-4.61,11.94a1.59,1.59,0,0,0,.35.95c3.05,4,7.2,5.27,12,4.61,3.54-.48,7.08-1.1,10.63-1.43a22.13,22.13,0,0,1,5.88.25c4,0.72,6.43,4.07,7,8.47A16.37,16.37,0,0,1,558,394.4c-8.95,8.27-19.31,13.56-31.54,14.83-4.42.46-6.74-1-7.9-4.7A4.22,4.22,0,0,1,520,399.7c1.38-1.14,2.77-1.84,4.7-.72,2.83,1.64,6,1.14,8.9.31A37.17,37.17,0,0,0,552.78,387a10.52,10.52,0,0,0,1.92-3.78,3.44,3.44,0,0,0-4.06-4.39c-4.67.7-9.32,1.59-14,1.9a29.77,29.77,0,0,1-9-.92c-5.34-1.34-8.08-5.41-8.48-10.89-1.05-14.62,10.7-26.1,22.83-29.52a33.08,33.08,0,0,1,11.72-1c4.15,0.34,5.95,3.38,4.27,7a3.71,3.71,0,0,1-3.42,2.47C552.84,347.89,551.16,347.86,549.49,347.86Z" transform="translate(-80.95 -286.87)"/><path class="cls-1" d="M467.7,356c2.9-3.17,5.45-6.53,8.56-9.23,6.66-5.81,14.64-7.48,23.28-6.32a4.45,4.45,0,0,1,4,4.9,4.35,4.35,0,0,1-4.24,4.43,56.87,56.87,0,0,0-8.14,1.18c-11.78,3.12-18.53,11.13-20.44,22.86-1.19,7.28-1.24,14.75-1.71,22.14-0.2,3.16-.15,6.34-0.29,9.51-0.11,2.6-1.27,3.68-3.94,3.88-2.94.22-4.94-.93-5.32-3.3a48,48,0,0,1-.63-6.6q-0.46-21-.81-42c-0.08-5.2,0-10.4,0-15.59a3.74,3.74,0,0,1,3-3.77c1.79-.57,3.66-0.48,5,1a4.72,4.72,0,0,1,.94,2.77c0.21,3.58.23,7.17,0.39,10.76C467.34,353.83,467.58,355,467.7,356Z" transform="translate(-80.95 -286.87)"/><path class="cls-1" d="M506.17,360.6c0-15,0-29.91,0-44.87a3.78,3.78,0,0,1,2.68-4.07c3-1.14,5.07,0,5.16,3.2,0.2,7.11.29,14.23,0.39,21.34,0.13,8.67.3,17.35,0.34,26,0.06,13.34,0,26.68,0,40,0,1.55-.15,3.1-0.31,4.65-0.21,2.07-1.53,3.1-3.83,3.07s-4-1.45-4.08-3.43c-0.15-3.71-.3-7.41-0.31-11.12,0-11.61,0-23.21,0-34.82h0Z" transform="translate(-80.95 -286.87)"/><path class="cls-1" d="M445.75,372.51c-0.26-10.88-.49-21.77-0.82-32.65-0.05-1.65.5-2.45,2.06-2.66a21.22,21.22,0,0,1,3-.35c2.59,0,3.61.9,3.82,3.45,0.27,3.34.43,6.69,0.51,10q0.71,27,1.36,54c0.09,3.71-1.33,5.58-4.36,5.76a4.44,4.44,0,0,1-4.81-4.4q-0.42-16.59-.83-33.19h0.06Z" transform="translate(-80.95 -286.87)"/><path class="cls-1" d="M450.13,321c0,3.18-1.46,4.62-4.59,4.59s-5.07-2.6-5-6.19c0-2.7,1.73-4.1,5-4.11C448.55,315.3,450.16,317.27,450.13,321Z" transform="translate(-80.95 -286.87)"/><path class="cls-2" d="M205,392.2h-7.82v7.63h-7.75v7.68h-7.84v7.57h-7.89v7.59h-7.19v7.44h-8.68v-7.34h-7.91v-7.54h-7.84v-7.64h-7.92c0-2.18-.06-4.14,0-6.09,0.05-1.25-.39-1.7-1.64-1.65-2,.08-3.93,0-6.11,0V392.2h-7.8v-7.53h-7.88V369.35h-7.84v-31h7.74v-7.66h7.87v-7.51h31.7v7.38h7.89v7.59h7.15v-7.46h7.89V323.2h31.77v7.47h7.88v7.67h7.78v30.88h-7.73v15.33H205v7.63Zm-78.33-45.72H119.1V369h7.63v15.19h7.86v7.64h7.9v7.77h7.9v7.58h7.89v7.33h7.11v-7.43h7.83v-7.65h8v-7.7H189v-7.64h7.86v-15.2h7.46V346.42h-7.51v-7.59H173.61v7.66h-7.47V354h-8.83v-7.58h-7.48v-7.54H126.67v7.63Z" transform="translate(-80.95 -286.87)"/><path class="cls-3" d="M165.43,414.57v-7.43h7.83v-7.65h8v-7.7h7.83v-7.64h7.86v-15.2h7.46V346.44h-7.51v-7.59H173.64v7.66h-7.47V354h-4.5v60.58h3.76Z" transform="translate(-80.95 -286.87)"/><path class="cls-4" d="M161.68,354h-4.33v-7.58h-7.48v-7.54H126.7v7.63h-7.57v22.55h7.63v15.19h7.86v7.64h7.9v7.77h7.9v7.58h7.89v7.33h3.36" transform="translate(-80.95 -286.87)"/><path class="cls-3" d="M162.12,286.87L176.06,292q32.28,11.85,64.56,23.67c1.41,0.51,1.87,1,1.67,2.66-2.12,17.63-4.13,35.27-6.16,52.9-1.85,16.09-3.74,32.18-5.44,48.29-0.34,3.2-1.46,5.13-4.44,6.71q-30.87,16.43-61.51,33.28a5.65,5.65,0,0,1-6.12,0c-20.2-11-40.48-21.9-60.65-33-6.34-3.48-4.8-1.76-5.76-9.1C91,407.89,90.06,398.31,89,388.75c-0.89-8.07-1.75-16.15-2.65-24.22s-1.84-15.9-2.73-23.86c-0.79-7.06-1.53-14.13-2.3-21.2a15.57,15.57,0,0,0-.38-1.71v-1.44a0.47,0.47,0,0,0,.18,0l61-22.42q9.63-3.54,19.28-7h0.72ZM205,392.2v-7.63h7.88V369.23h7.73V338.35h-7.78v-7.67h-7.88V323.2H173.17v7.55h-7.89v7.46h-7.15v-7.59h-7.89v-7.38h-31.7v7.51h-7.87v7.66h-7.74v31h7.84v15.32h7.88v7.53h7.8v7.66c2.18,0,4.15.06,6.11,0,1.25,0,1.69.4,1.64,1.65-0.08,2,0,3.91,0,6.09h7.92v7.64h7.84v7.54h7.91v7.34h8.68v-7.44h7.19v-7.59h7.89v-7.57h7.84v-7.68h7.75V392.2H205Z" transform="translate(-80.95 -286.87)"/><path class="cls-4" d="M158.12,338.21v-7.46h-7.89V323.2H118.46v7.47h-7.88v7.67H102.8v30.88h7.73v15.33h7.88v7.63h7.82v7.63H134v7.68h7.84v7.57h7.89v7.59h7.19v7.44h4.87v30.27a6.33,6.33,0,0,1-3.11-.9Q128,442.71,97.14,426.2c-3-1.58-4.1-3.51-4.44-6.71-1.7-16.11-3.59-32.2-5.44-48.29-2-17.64-4-35.28-6.16-52.9-0.19-1.62.27-2.14,1.67-2.66q32.3-11.79,64.56-23.67l13.94-5.09h0.48v51.34h-3.64Z" transform="translate(-80.95 -286.87)"/></svg>