<svg id="Capa_1" data-name="Capa 1" xmlns="http://www.w3.org/2000/svg" viewBox="0 0 109.58 58.76"><defs><style>.cls-1{fill:#fff;}</style></defs><title>LOGO_YUXI_FOOTER</title><path class="cls-1" d="M23.17.66C20.35,1.94.86,13.34.86,13.34l5.82,3.41c.65.39,1.5.6,3.28-.42S22.07,9.68,23.17,9.07a6.65,6.65,0,0,1,6,0c3.11,1.63,13.11,7.3,13.11,7.3a4.31,4.31,0,0,0,4,.06l5.17-3S30.43,1.18,29.14.62a7.54,7.54,0,0,0-3-.62,6.93,6.93,0,0,0-3,.66"/><path class="cls-1" d="M.11,40.61a7.3,7.3,0,0,0,3,5.15c2.51,1.81,22.16,13,22.16,13s0-5.82,0-6.74c0-.76-.21-1.6-2-2.63s-11.87-7-12.94-7.66a7,7,0,0,1-2.94-5.34c-.13-3.51-.07-15-.07-15a3.08,3.08,0,0,0-1.53-3L0,14.93s0,24.28.1,25.68"/><path class="cls-1" d="M46.5,18.35a3.06,3.06,0,0,0-1.52,3s.05,11.48-.08,15A7,7,0,0,1,42,41.72c-1.08.65-11.19,6.63-12.94,7.66S27,51.25,27,52c0,.92,0,6.74,0,6.74s19.65-11.18,22.16-13a7.26,7.26,0,0,0,3-5.15c.16-1.4.1-25.68.1-25.68Z"/><path class="cls-1" d="M9.2,20.56S20.72,27,22.48,28.09s2.81,1.47,2.81,4.85V48.39l-5.6-3.3a3.15,3.15,0,0,1-1.35-2.63c0-.76.14-8.3-.23-9.37a7.62,7.62,0,0,0-2.52-2.61c-2.49-1.58-4.93-2.85-5.54-3.25a1.48,1.48,0,0,1-.85-1.52Z"/><path class="cls-1" d="M43.12,20.56S31.6,27,29.84,28.09,27,29.56,27,32.94V48.39l5.6-3.3A3.13,3.13,0,0,0,34,42.46c0-.76-.14-8.3.23-9.37a7.71,7.71,0,0,1,2.52-2.61c2.49-1.58,4.93-2.85,5.54-3.25a1.48,1.48,0,0,0,.85-1.52Z"/><path class="cls-1" d="M63.61,55a4.32,4.32,0,0,1-1.78-.33,2.6,2.6,0,0,1-1.17-1A4.28,4.28,0,0,1,60,52.22a8.58,8.58,0,0,1-.19-1.93V45.81A8.67,8.67,0,0,1,60,44.2a4.51,4.51,0,0,1,.42-1.3,2.91,2.91,0,0,1,.76-1,3.55,3.55,0,0,1,1.18-.61A5.64,5.64,0,0,1,64,41.09a5.8,5.8,0,0,1,1.58.19,3.3,3.3,0,0,1,1.15.52,2.68,2.68,0,0,1,.74.83,3.77,3.77,0,0,1,.41,1.09A6.06,6.06,0,0,1,68,45.05v.85H65V44.82c0-.21,0-.38,0-.51a2.55,2.55,0,0,0-.07-.43.93.93,0,0,0-.15-.36.8.8,0,0,0-.3-.23A1.14,1.14,0,0,0,64,43.2a1.07,1.07,0,0,0-.49.1,1,1,0,0,0-.31.26A1.24,1.24,0,0,0,63,44a3,3,0,0,0-.07.46c0,.14,0,.31,0,.51v6.19a2.82,2.82,0,0,0,.24,1.27.92.92,0,0,0,.89.47c.79,0,1.19-.6,1.19-1.8V49.54H64V47.76h4V55H66l-.23-1.33A2.2,2.2,0,0,1,63.61,55Z"/><path class="cls-1" d="M69.27,55V41.09h3V52.92h3.14v2Z"/><path class="cls-1" d="M80,55a5.53,5.53,0,0,1-1.94-.3,2.87,2.87,0,0,1-1.28-.89,3.63,3.63,0,0,1-.69-1.39,7.44,7.44,0,0,1-.21-1.88v-5a7.47,7.47,0,0,1,.21-1.89,3.66,3.66,0,0,1,.69-1.38,2.85,2.85,0,0,1,1.28-.88A5.79,5.79,0,0,1,80,41.09a4,4,0,0,1,3.19,1.12,5,5,0,0,1,1,3.32v5a5,5,0,0,1-1,3.33A4,4,0,0,1,80,55Zm-.46-2.21a1.08,1.08,0,0,0,.46.1,1.12,1.12,0,0,0,.47-.1.76.76,0,0,0,.31-.23,1.15,1.15,0,0,0,.17-.37,2.65,2.65,0,0,0,.08-.43c0-.14,0-.29,0-.48V44.78c0-.18,0-.33,0-.47a2.37,2.37,0,0,0-.08-.42,1,1,0,0,0-.17-.36.78.78,0,0,0-.31-.24A1.13,1.13,0,0,0,80,43.2a1,1,0,0,0-.77.32,1,1,0,0,0-.16.37,2.3,2.3,0,0,0-.07.42c0,.12,0,.28,0,.47v6.48c0,.19,0,.35,0,.48a2.45,2.45,0,0,0,.07.42,1,1,0,0,0,.16.37A1,1,0,0,0,79.56,52.77Z"/><path class="cls-1" d="M85.33,55V41.09h3.56a11,11,0,0,1,1.37.08,5.09,5.09,0,0,1,1.19.31,2.86,2.86,0,0,1,1,.63A2.77,2.77,0,0,1,93,43.17a4.46,4.46,0,0,1,.21,1.44v.11q0,2.43-2,2.79a2.53,2.53,0,0,1,1.8,1,4,4,0,0,1,.64,2.33V51a4,4,0,0,1-1.05,3,4.37,4.37,0,0,1-3.09,1Zm3-8.33h.58a1.62,1.62,0,0,0,1.32-.44,2.25,2.25,0,0,0,.35-1.41c0-1.09-.59-1.64-1.77-1.64h-.48Zm0,6.19H89a1.69,1.69,0,0,0,1.38-.49,2.42,2.42,0,0,0,.39-1.53,2.64,2.64,0,0,0-.4-1.66,1.77,1.77,0,0,0-1.42-.48h-.59Z"/><path class="cls-1" d="M93.82,55l2.6-13.88h3.42L102.41,55H99.62L99.15,52h-2L96.69,55Zm3.6-4.78h1.46l-.74-5.37Z"/><path class="cls-1" d="M103.26,55V41.09h3V52.92h3.14v2Z"/><path class="cls-1" d="M60.16,38.08V27.72l-4.83-15H60.6l2.42,8,2.18-8h5.09l-4.77,15V38.08Z"/><path class="cls-1" d="M79,38.06a11.31,11.31,0,0,1-3-.36,6.16,6.16,0,0,1-2.14-1A4.85,4.85,0,0,1,72.51,35a7.76,7.76,0,0,1-.74-2.27,16.54,16.54,0,0,1-.22-2.9V12.75h5.53V30.66c0,.4,0,.73,0,1a5.34,5.34,0,0,0,.15.89,2.66,2.66,0,0,0,.31.79,1.45,1.45,0,0,0,.58.51,1.75,1.75,0,0,0,.89.21,1.78,1.78,0,0,0,.89-.21,1.46,1.46,0,0,0,.56-.51,2.41,2.41,0,0,0,.31-.79,5.28,5.28,0,0,0,.15-.9c0-.28,0-.61,0-1V12.75h5.55v17.1a15,15,0,0,1-.36,3.54A6.71,6.71,0,0,1,85,35.93a4.89,4.89,0,0,1-2.31,1.61A11.09,11.09,0,0,1,79,38.06Z"/><path class="cls-1" d="M87.58,38.08l4.93-13.66L87.79,12.75h5.3l2.77,6.84,2.23-6.84h4.71L98.35,25.87l4.92,12.21H98L95,30.53l-2.74,7.55Z"/><path class="cls-1" d="M104.06,38.08V12.75h5.36V38.08Z"/><rect class="cls-1" x="71.14" y="3.77" width="0.4" height="6"/><path class="cls-1" d="M73.75,5.42a1.34,1.34,0,0,0-1,.52V5.42h-.4V9.78h.4V6.2a1.81,1.81,0,0,1,.41-.34.82.82,0,0,1,.43-.13.41.41,0,0,1,.34.15A.93.93,0,0,1,74,6.4V9.78h.4V6.36a1.14,1.14,0,0,0-.19-.71A.59.59,0,0,0,73.75,5.42Z"/><path class="cls-1" d="M76.82,8.06a2.27,2.27,0,0,0-.24-.27,2.81,2.81,0,0,0-.29-.26l-.51-.45a1.33,1.33,0,0,1-.35-.39.87.87,0,0,1-.09-.42.51.51,0,0,1,.18-.41A.64.64,0,0,1,76,5.71c.42,0,.64.3.66.91l.3-.09a1.34,1.34,0,0,0-.27-.82.86.86,0,0,0-.7-.29,1,1,0,0,0-.71.24.86.86,0,0,0-.27.67,1,1,0,0,0,.15.55,2,2,0,0,0,.47.52l.5.41a1.39,1.39,0,0,1,.62,1,.62.62,0,0,1-.68.68c-.5,0-.77-.34-.82-1l-.34.09a1.5,1.5,0,0,0,.35.89,1,1,0,0,0,.8.32,1.09,1.09,0,0,0,.76-.26.91.91,0,0,0,.29-.71,1.59,1.59,0,0,0-.07-.4A1,1,0,0,0,76.82,8.06Z"/><path class="cls-1" d="M79.51,5.9a.81.81,0,0,0-.29-.36.94.94,0,0,0-.49-.12,1,1,0,0,0-.81.42V5.49h-.4V11.1h.4V9.37a1,1,0,0,0,.78.41.81.81,0,0,0,.78-.44A3.31,3.31,0,0,0,79.7,8V7.16a7.06,7.06,0,0,0,0-.72A2.13,2.13,0,0,0,79.51,5.9ZM79.3,8a3.44,3.44,0,0,1-.13,1.15.5.5,0,0,1-.52.34.94.94,0,0,1-.73-.37v-3a1,1,0,0,1,.73-.39.52.52,0,0,1,.53.32,3.63,3.63,0,0,1,.12,1.12Z"/><rect class="cls-1" x="80.36" y="4.24" width="0.39" height="0.68"/><path class="cls-1" d="M83,5.42a1.11,1.11,0,0,0-.55.16A1.38,1.38,0,0,0,82,6V5.42h-.4V9.78H82V6.35a1,1,0,0,1,.92-.54.41.41,0,0,1,.16,0V5.42H83Z"/><path class="cls-1" d="M85.5,7.1a2.71,2.71,0,0,0-.23-1.3.9.9,0,0,0-.82-.38,1.43,1.43,0,0,0-.38,0,.85.85,0,0,0-.3.15.71.71,0,0,0-.23.28,1.48,1.48,0,0,0-.14.46,3.33,3.33,0,0,0-.05.67V8.15a4.38,4.38,0,0,0,0,.67,2.2,2.2,0,0,0,.14.47,1,1,0,0,0,.23.29.85.85,0,0,0,.3.15,1.46,1.46,0,0,0,.38,0,1,1,0,0,0,.81-.32,1.4,1.4,0,0,0,.25-.9V8.28h-.39V8.6a1.59,1.59,0,0,1,0,.4.63.63,0,0,1-.11.26.54.54,0,0,1-.15.15l-.18.06-.19,0a.56.56,0,0,1-.54-.29,2.23,2.23,0,0,1-.15-1V7.5h1.74Zm-.39.17H83.75V7a3.09,3.09,0,0,1,.07-.77A.69.69,0,0,1,84,5.81a.8.8,0,0,1,.41-.1.65.65,0,0,1,.29.06.46.46,0,0,1,.2.16.92.92,0,0,1,.11.26c0,.11,0,.22,0,.33s0,.26,0,.42Z"/><path class="cls-1" d="M91.78,8.05a3.33,3.33,0,0,0-.24-.26l-.29-.26-.51-.45a1.33,1.33,0,0,1-.35-.39.87.87,0,0,1-.09-.42.52.52,0,0,1,.17-.41.69.69,0,0,1,.46-.15q.63,0,.66.9l.29-.08a1.34,1.34,0,0,0-.26-.82.88.88,0,0,0-.71-.29,1,1,0,0,0-.71.24.89.89,0,0,0-.26.67,1.1,1.1,0,0,0,.14.55,2.21,2.21,0,0,0,.48.51l.5.42a1.4,1.4,0,0,1,.62,1,.68.68,0,0,1-.18.5.72.72,0,0,1-.5.17c-.5,0-.77-.33-.82-1l-.34.1a1.39,1.39,0,0,0,.35.88,1,1,0,0,0,.79.32,1.1,1.1,0,0,0,.77-.25A.91.91,0,0,0,92,8.81,1.35,1.35,0,0,0,92,8.4,1.33,1.33,0,0,0,91.78,8.05Z"/><path class="cls-1" d="M94.33,5.83A.76.76,0,0,0,94,5.52a1.19,1.19,0,0,0-.53-.1.91.91,0,0,0-.85.39A2.51,2.51,0,0,0,92.39,7V8.17a2.48,2.48,0,0,0,.23,1.22,1.12,1.12,0,0,0,1.7,0,2.46,2.46,0,0,0,.24-1.22V7a4.35,4.35,0,0,0-.06-.7A1.47,1.47,0,0,0,94.33,5.83Zm-.18,2.35v.39l0,.31a1.05,1.05,0,0,1-.07.26,1.27,1.27,0,0,1-.13.19.57.57,0,0,1-.18.12.93.93,0,0,1-.54,0A.47.47,0,0,1,93,9.33a1.27,1.27,0,0,1-.13-.19,1.05,1.05,0,0,1-.07-.26c0-.11,0-.21,0-.31s0-.23,0-.38V7c0-.19,0-.34,0-.45a1.47,1.47,0,0,1,0-.36A.66.66,0,0,1,93,5.93a.54.54,0,0,1,.2-.16.83.83,0,0,1,.62,0,.54.54,0,0,1,.2.16.66.66,0,0,1,.11.28,1.48,1.48,0,0,1,0,.35c0,.12,0,.27,0,.46Z"/><path class="cls-1" d="M103.84,5.83a.76.76,0,0,0-.33-.31,1.19,1.19,0,0,0-.53-.1.9.9,0,0,0-.84.39A2.38,2.38,0,0,0,101.9,7V8.17a2.42,2.42,0,0,0,.24,1.23.9.9,0,0,0,.84.38.92.92,0,0,0,.85-.38,2.42,2.42,0,0,0,.24-1.23V7a3.44,3.44,0,0,0-.06-.7A1.55,1.55,0,0,0,103.84,5.83Zm-.17,2.36c0,.15,0,.28,0,.38a1.63,1.63,0,0,1,0,.31,1.31,1.31,0,0,1-.07.27.94.94,0,0,1-.12.18.35.35,0,0,1-.19.12.77.77,0,0,1-.27,0,.68.68,0,0,1-.26,0,.35.35,0,0,1-.19-.12.94.94,0,0,1-.12-.18.88.88,0,0,1-.07-.27,1.62,1.62,0,0,1,0-.31c0-.1,0-.23,0-.38V7c0-.19,0-.33,0-.45a2.2,2.2,0,0,1,0-.36.69.69,0,0,1,.11-.27.67.67,0,0,1,.2-.17.75.75,0,0,1,.31-.06.68.68,0,0,1,.31.06.49.49,0,0,1,.2.17.68.68,0,0,1,.12.27c0,.12,0,.24,0,.36s0,.26,0,.45Z"/><rect class="cls-1" x="95.18" y="3.77" width="0.41" height="6"/><path class="cls-1" d="M98,9a1.74,1.74,0,0,1-.44.38.88.88,0,0,1-.45.14.36.36,0,0,1-.32-.15.81.81,0,0,1-.12-.51V5.43h-.4V8.85a1.14,1.14,0,0,0,.18.71.63.63,0,0,0,.49.22,1.16,1.16,0,0,0,.57-.15A1.58,1.58,0,0,0,98,9.21v.57h.42V5.42H98Z"/><path class="cls-1" d="M99.71,4.24h-.4V5.42h-.56v.41h.56V8.89a2.33,2.33,0,0,0,0,.29,1,1,0,0,0,0,.24.52.52,0,0,0,.12.19.48.48,0,0,0,.2.12.85.85,0,0,0,.3,0,1.75,1.75,0,0,0,.4,0v-.3a1.52,1.52,0,0,1-.32,0c-.15,0-.24,0-.28-.13a1.1,1.1,0,0,1-.08-.5v-3h.71V5.42h-.72Z"/><rect class="cls-1" x="100.88" y="5.42" width="0.4" height="4.36"/><rect class="cls-1" x="100.88" y="4.24" width="0.41" height="0.68"/><path class="cls-1" d="M109.36,8.41a1.19,1.19,0,0,0-.19-.35l-.24-.27-.29-.26-.51-.45a1.33,1.33,0,0,1-.35-.39.87.87,0,0,1-.09-.42.53.53,0,0,1,.17-.41.69.69,0,0,1,.46-.15c.42,0,.64.3.66.91l.29-.09a1.34,1.34,0,0,0-.26-.82.88.88,0,0,0-.71-.29,1,1,0,0,0-.71.24.89.89,0,0,0-.26.67,1,1,0,0,0,.15.55,2,2,0,0,0,.47.52l.5.41a1.42,1.42,0,0,1,.62,1,.67.67,0,0,1-.18.5.68.68,0,0,1-.5.18c-.5,0-.77-.34-.82-1l-.34.09a1.44,1.44,0,0,0,.35.89,1,1,0,0,0,.79.32,1.1,1.1,0,0,0,.77-.26.91.91,0,0,0,.28-.71A1.25,1.25,0,0,0,109.36,8.41Z"/><path class="cls-1" d="M106.05,5.42a1.31,1.31,0,0,0-1,.52V5.42h-.41V9.78H105V6.2a1.46,1.46,0,0,1,.41-.34.8.8,0,0,1,.43-.13.39.39,0,0,1,.33.15.84.84,0,0,1,.12.52V9.78h.4V6.36a1.14,1.14,0,0,0-.19-.71A.61.61,0,0,0,106.05,5.42Z"/><polygon class="cls-1" points="80.36 5.42 80.36 9.78 80.75 9.78 80.76 9.78 80.76 5.42 80.75 5.42 80.36 5.42"/><path class="cls-1" d="M87.73,3.77v2A1,1,0,0,0,87,5.42a.76.76,0,0,0-.77.42A3.18,3.18,0,0,0,86,7.22V8a3.08,3.08,0,0,0,.23,1.39.81.81,0,0,0,.78.42,1,1,0,0,0,.75-.38v.38h.4v-6h-.4ZM87,9.48a.52.52,0,0,1-.53-.34A3.1,3.1,0,0,1,86.38,8V7.12A3.21,3.21,0,0,1,86.5,6,.51.51,0,0,1,87,5.71a1,1,0,0,1,.71.36V9.13A.93.93,0,0,1,87,9.48Z"/></svg>