<svg id="Capa_1" data-name="Capa 1" xmlns="http://www.w3.org/2000/svg" viewBox="0 0 58.41 63.61"><defs><style>.cls-1{fill:#fff;}</style></defs><title>LOGO_NG_PEQUEÑO</title><path class="cls-1" d="M26.76,39.32a1.11,1.11,0,0,0-.84.34,1.35,1.35,0,0,0-.32.93,1.32,1.32,0,0,0,.32.92,1.22,1.22,0,0,0,1.69,0,1.32,1.32,0,0,0,.32-.92,1.35,1.35,0,0,0-.32-.93A1.12,1.12,0,0,0,26.76,39.32Z"/><path class="cls-1" d="M39.15,41h-.82v1h.81a.52.52,0,0,0,.36-.14.43.43,0,0,0,.15-.36.51.51,0,0,0-.14-.37A.49.49,0,0,0,39.15,41Z"/><path class="cls-1" d="M39.4,40.05a.43.43,0,0,0,.14-.36.42.42,0,0,0-.14-.35.49.49,0,0,0-.37-.13h-.7v1H39A.53.53,0,0,0,39.4,40.05Z"/><path class="cls-1" d="M17.2,39.32a1.12,1.12,0,0,0-.85.34,1.35,1.35,0,0,0-.32.93,1.32,1.32,0,0,0,.32.92,1.22,1.22,0,0,0,1.69,0,1.32,1.32,0,0,0,.32-.92,1.35,1.35,0,0,0-.32-.93A1.11,1.11,0,0,0,17.2,39.32Z"/><polygon class="cls-1" points="46.36 41.25 47.4 41.25 46.88 39.68 46.36 41.25"/><path class="cls-1" d="M29.2,0,0,11.48,4.14,48.29,29.2,63.61,54.55,48.12,58.4,11.48ZM10.75,41.51a1.12,1.12,0,0,0,.87.34.85.85,0,0,0,.8-.48H13.7a2,2,0,0,1-.8,1.08A2.35,2.35,0,0,1,10,42.2a2.16,2.16,0,0,1-.65-1.61A2.2,2.2,0,0,1,10,39a2.25,2.25,0,0,1,1.61-.63,2.31,2.31,0,0,1,1.3.38,2,2,0,0,1,.8,1.08H12.42a.85.85,0,0,0-.8-.48,1.15,1.15,0,0,0-.87.34,1.35,1.35,0,0,0-.32.93A1.32,1.32,0,0,0,10.75,41.51Zm3.33-5.46H9.34V16.52h4.74L22,28.81V16.52h4.74V36.05H22L14.08,23.76Zm4.72,6.16a2.32,2.32,0,0,1-3.2,0,2.32,2.32,0,0,1,0-3.24,2.35,2.35,0,0,1,3.2,0,2.16,2.16,0,0,1,.65,1.62A2.2,2.2,0,0,1,18.8,42.21Zm4.56.59H21V38.4H22V42h1.34Zm5-.59a2.33,2.33,0,0,1-3.21,0,2.34,2.34,0,0,1,0-3.24,2.25,2.25,0,0,1,1.61-.63,2.28,2.28,0,0,1,1.6,3.87Zm7.14.59H34.43V40.32l-1,2.48h-.8l-1-2.48V42.8H30.52V38.4h1.23l1.26,3,1.27-3h1.23Zm4.84-.31a1.64,1.64,0,0,1-1.07.31h-2V38.4h1.91a1.68,1.68,0,0,1,1.07.32,1.06,1.06,0,0,1,.4.83,1,1,0,0,1-.88,1,1.09,1.09,0,0,1,.71.37,1.08,1.08,0,0,1,.27.72A1,1,0,0,1,40.35,42.49Zm3,.31H42.29V38.4h1.08Zm4.54,0-.24-.74H46.09l-.25.74H44.7l1.53-4.41h1.31l1.52,4.41ZM36,30.34a4.88,4.88,0,0,0,3.76,1.52A4.32,4.32,0,0,0,42.53,31,4.12,4.12,0,0,0,44,28.76H38.47V25.15H49.06v3.61a9.45,9.45,0,0,1-2.91,5,8.75,8.75,0,0,1-2.82,1.8,9.08,9.08,0,0,1-3.56.7,9.79,9.79,0,0,1-7.09-2.82,9.55,9.55,0,0,1-2.9-7.14,9.52,9.52,0,0,1,2.9-7.14,9.79,9.79,0,0,1,7.09-2.82A10,10,0,0,1,45.54,18a9,9,0,0,1,3.52,4.77H43.4a3.72,3.72,0,0,0-3.55-2.13A4.93,4.93,0,0,0,36,22.18a5.82,5.82,0,0,0-1.4,4.08A5.82,5.82,0,0,0,36,30.34Z"/></svg>